<svg id="SvgjsSvg1014" width="100%" height="100%" xmlns="http://www.w3.org/2000/svg" version="1.1" xlink="http://www.w3.org/1999/xlink" xmlns:svgjs="http://svgjs.com/svgjs" preserveAspectRatio="xMidYMid meet" viewBox="0 0 297.16204833984375 147" overflow="visible"><defs id="SvgjsDefs1015"></defs><g id="SvgjsG1016" transform="scale(0.2827771842121739)" opacity="1"><g id="SvgjsG1017" class="7rUoqadvU" transform="translate(298.6292973363815, -14.17713112773771) scale(4.536062488230961)" light-content="false" non-strokable="false" fill="#1348c3"><path d="M64.91 67.941h-6.133c-.863 0-1.562.7-1.562 1.563v14.058c0 .864.699 1.563 1.562 1.563h18.977a4.342 4.342 0 0 0 4.238-3.398l1.891-8.5a4.36 4.36 0 0 0-.851-3.66 4.345 4.345 0 0 0-3.391-1.626h-4.344v-2.687a4.343 4.343 0 0 0-4.344-4.344h-.097a4.347 4.347 0 0 0-3.969 2.582zm-.547 3.125V82H60.34V71.066zm4.996-65.812a7.266 7.266 0 0 0 0 10.273c3.71 3.715 8.645 8.644 8.645 8.644.609.61 1.597.61 2.206 0 0 0 4.934-4.93 8.641-8.644a7.259 7.259 0 0 0 0-10.273 7.265 7.265 0 0 0-9.746-.48 7.265 7.265 0 0 0-9.746.48zm18.567 33.441h-7.652l.375-2.234a1.562 1.562 0 1 0-3.082-.516l-.461 2.75h-2.73a1.562 1.562 0 1 0 0 3.125h2.21l-1.281 7.691H72.57c-.859 0-1.562.7-1.562 1.563s.703 1.562 1.562 1.562h2.215l-.375 2.239a1.568 1.568 0 0 0 1.285 1.8 1.564 1.564 0 0 0 1.797-1.285l.457-2.754h7.653l-.375 2.239a1.57 1.57 0 0 0 1.285 1.8 1.562 1.562 0 0 0 1.797-1.285l.46-2.754h2.735a1.562 1.562 0 1 0 0-3.125H89.29l1.282-7.691h2.734a1.562 1.562 0 1 0 0-3.125h-2.211l.371-2.234a1.566 1.566 0 0 0-1.285-1.801 1.564 1.564 0 0 0-1.797 1.285zm-.523 3.125h-7.649l-1.281 7.691h7.648zM26.781 17.621c0 5.79 4.695 10.48 10.484 10.48s10.48-4.691 10.48-10.48c0-5.793-4.691-10.484-10.48-10.484s-10.484 4.691-10.484 10.484" fill-rule="evenodd"></path><path d="M24.906 37.621c-.004.059-.004.113-.004.172v58.28c.258.458.73.77 1.285.798l9.512.004V65.992a1.562 1.562 0 1 1 3.125 0v30.883h9.434c.863 0 1.562-.7 1.562-1.563V48.554l17.04-17.039a7.05 7.05 0 0 0 0-9.976c0-.004-.005-.004-.009-.008-2.75-2.758-7.219-2.758-9.976 0L45.703 32.703l-14.457-.008a6.547 6.547 0 0 0-6.34 4.926zm-3.129 3.426a8324.516 8324.516 0 0 1-14.543 14.3v.005a7.04 7.04 0 0 0-.043 9.992l.004.004a7.031 7.031 0 0 0 4.969 2.058 7.038 7.038 0 0 0 4.969-2.058l4.644-4.649z" fill-rule="evenodd"></path></g><g id="SvgjsG1018" class="text" transform="translate(255.86000061035156, 507.39391964632193) scale(1)" light-content="false" fill="#2b2b2b"><path d="M-243.21 0.59C-240.08 0.59 -237.27 -0.06 -234.77 -1.36C-232.27 -2.66 -230.13 -4.58 -228.34 -7.1C-226.55 -9.63 -225.15 -12.76 -224.14 -16.48C-223.12 -20.2 -222.61 -23.66 -222.61 -26.87C-222.61 -31.3 -223.69 -34.62 -225.85 -36.83C-228.01 -39.03 -231.16 -40.14 -235.3 -40.14C-238.46 -40.14 -241.3 -39.49 -243.81 -38.2C-246.32 -36.91 -248.45 -35.02 -250.21 -32.53C-251.97 -30.04 -253.35 -26.95 -254.36 -23.25C-255.36 -19.55 -255.86 -16.09 -255.86 -12.89C-255.86 -8.42 -254.79 -5.05 -252.66 -2.8C-250.52 -0.54 -247.37 0.59 -243.21 0.59ZM-231.4 -26.13C-231.4 -23.4 -231.87 -20.29 -232.81 -16.8C-233.75 -13.32 -234.98 -10.68 -236.5 -8.89C-238.02 -7.1 -239.82 -6.21 -241.89 -6.21C-245.35 -6.21 -247.08 -8.69 -247.08 -13.65C-247.08 -16.35 -246.61 -19.43 -245.68 -22.91C-244.76 -26.39 -243.54 -28.99 -242.02 -30.73C-240.51 -32.47 -238.71 -33.34 -236.62 -33.34C-233.14 -33.34 -231.4 -30.94 -231.4 -26.13Z M-191.98 -13.95C-189.25 -13.95 -186.78 -14.35 -184.58 -15.15C-182.38 -15.95 -180.52 -17.08 -178.99 -18.53C-177.45 -19.99 -176.25 -21.75 -175.38 -23.83C-174.51 -25.91 -174.08 -27.99 -174.08 -30.06C-174.08 -33.16 -175.21 -35.52 -177.46 -37.12C-179.72 -38.72 -183.02 -39.52 -187.38 -39.52L-201.44 -39.52L-209.12 0L-200.48 0L-197.75 -13.95ZM-182.96 -28.51C-182.96 -28.02 -183.01 -27.48 -183.13 -26.89C-183.93 -22.7 -186.81 -20.6 -191.77 -20.6L-196.46 -20.6L-194.09 -32.81L-189.64 -32.81C-187.43 -32.81 -185.76 -32.48 -184.64 -31.82C-183.52 -31.15 -182.96 -30.05 -182.96 -28.51Z M-123.91 -39.52L-152.24 -39.52L-159.91 -0.03L-151.27 -0.03L-144.88 -32.84L-125.19 -32.84Z M-81.08 0L-86.36 -39.52L-96.44 -39.52L-117.09 0L-108.45 0L-103.88 -9.67L-90.52 -9.67L-89.7 0ZM-92.42 -34.19L-92.39 -33.16L-92.07 -27.3L-91.08 -16.17L-100.8 -16.17C-96.72 -24.73 -94.38 -29.67 -93.79 -31C-93.19 -32.32 -92.74 -33.39 -92.42 -34.19Z M-45.76 0L-37.12 0L-29.45 -39.52L-38.09 -39.52L-41.11 -23.96L-51.74 -23.96L-48.72 -39.52L-57.37 -39.52L-65.04 0L-56.4 0L-53.12 -16.82L-42.48 -16.82Z M-17.09 0L-6.96 0L10.03 -29.59C8.47 -24.22 7.53 -20.76 7.22 -19.22L3.47 0L11 0L18.68 -39.52L8.8 -39.52L-8.6 -9.14C-7.19 -13.61 -6.23 -17.18 -5.7 -19.83L-1.89 -39.52L-9.42 -39.52Z M44.56 0.59C47.96 0.59 51.06 -0.02 53.87 -1.23C56.67 -2.44 58.86 -4.13 60.44 -6.3C62.02 -8.47 62.82 -10.72 62.82 -13.07C62.82 -14.98 62.15 -16.58 60.81 -17.87C59.47 -19.16 57.58 -20 55.14 -20.39C58.38 -21.17 60.89 -22.58 62.67 -24.61C64.45 -26.64 65.33 -28.91 65.33 -31.41C65.33 -34.02 64.15 -36.13 61.79 -37.72C59.43 -39.31 56.33 -40.11 52.5 -40.11C48.44 -40.11 44.85 -39.16 41.74 -37.27C38.62 -35.37 36.12 -32.63 34.22 -29.03L41.72 -27.25C44.03 -31.58 47.16 -33.75 51.13 -33.75C52.86 -33.75 54.23 -33.39 55.21 -32.67C56.2 -31.94 56.69 -30.96 56.69 -29.71C56.69 -27.77 55.88 -26.24 54.26 -25.11C52.64 -23.97 50.2 -23.41 46.94 -23.41L44.92 -23.41L43.63 -16.76L45.65 -16.76C48.62 -16.76 50.81 -16.42 52.22 -15.73C53.64 -15.05 54.35 -14 54.35 -12.6C54.35 -11.43 53.99 -10.32 53.26 -9.27C52.54 -8.23 51.55 -7.44 50.28 -6.9C49.01 -6.36 47.53 -6.09 45.85 -6.09C43.53 -6.09 41.72 -6.62 40.42 -7.68C39.12 -8.73 38.28 -10.38 37.91 -12.63L29.65 -9.9C30.26 -6.54 31.8 -3.96 34.29 -2.14C36.79 -0.32 40.21 0.59 44.56 0.59Z M110.94 0L105.67 -39.52L95.59 -39.52L74.93 0L83.58 0L88.15 -9.67L101.5 -9.67L102.33 0ZM99.6 -34.19L99.63 -33.16L99.95 -27.3L100.95 -16.17L91.22 -16.17C95.3 -24.73 97.64 -29.67 98.24 -31C98.83 -32.32 99.29 -33.39 99.6 -34.19Z M149.19 12.45L156.51 12.45L160.32 -7.15L154.96 -7.15L161.26 -39.52L152.62 -39.52L146.32 -7.15L137 -7.15L143.3 -39.52L134.66 -39.52L126.98 0L151.62 0Z M174.93 0L185.07 0L202.06 -29.59C200.5 -24.22 199.56 -20.76 199.25 -19.22L195.5 0L203.02 0L210.7 -39.52L200.83 -39.52L183.42 -9.14C184.83 -13.61 185.8 -17.18 186.33 -19.83L190.13 -39.52L182.6 -39.52Z M218.98 0L228.71 0L240.13 -15.09L245.2 -15.09L242.27 0L250.91 0L258.59 -39.52L244.12 -39.52C240.23 -39.52 236.97 -38.95 234.35 -37.81C231.72 -36.67 229.7 -34.97 228.3 -32.71C226.89 -30.45 226.19 -28 226.19 -25.34C226.19 -23.29 226.73 -21.56 227.83 -20.14C228.92 -18.73 230.48 -17.69 232.51 -17.02ZM234.92 -26.07C234.92 -27.42 235.23 -28.63 235.87 -29.69C236.5 -30.76 237.46 -31.54 238.73 -32.05C240 -32.56 241.67 -32.81 243.74 -32.81L248.66 -32.81L246.52 -21.8L241.36 -21.8C237.07 -21.8 234.92 -23.22 234.92 -26.07Z"></path></g><g id="SvgjsG1019" class="text" transform="translate(792.1599914550782, 518.2289210196129) scale(1)" light-content="false" fill="#1348c3"><path d="M-234.51 0L-228 0L-220.33 -39.52L-230.14 -39.52L-236.97 -24.87C-237.63 -23.29 -238.46 -21.04 -239.46 -18.13C-239.28 -20.89 -239.19 -22.69 -239.19 -23.53L-239.25 -24.9L-240.37 -39.52L-250.53 -39.52L-258.21 0L-251.76 0L-246.81 -25.43C-246.5 -27.01 -246.07 -29.95 -245.52 -34.25C-245.46 -29.54 -245.37 -26.21 -245.23 -24.26L-244.2 -10.55L-237.82 -10.55L-231.52 -24.26C-230.87 -25.61 -229.5 -28.94 -227.39 -34.25C-227.66 -33.29 -228.04 -31.83 -228.53 -29.87C-229.02 -27.91 -229.36 -26.43 -229.56 -25.43Z M-209.09 0L-179.53 0L-178.24 -6.68L-199.16 -6.68L-197.19 -16.67L-179.26 -16.67L-177.98 -23.35L-195.91 -23.35L-194.06 -32.84L-174.34 -32.84L-173.05 -39.52L-201.41 -39.52Z M-143.97 -13.95C-141.24 -13.95 -138.77 -14.35 -136.58 -15.15C-134.38 -15.95 -132.51 -17.08 -130.98 -18.53C-129.45 -19.99 -128.25 -21.75 -127.38 -23.83C-126.51 -25.91 -126.07 -27.99 -126.07 -30.06C-126.07 -33.16 -127.2 -35.52 -129.46 -37.12C-131.71 -38.72 -135.02 -39.52 -139.37 -39.52L-153.44 -39.52L-161.11 0L-152.47 0L-149.75 -13.95ZM-134.95 -28.51C-134.95 -28.02 -135.01 -27.48 -135.13 -26.89C-135.93 -22.7 -138.81 -20.6 -143.77 -20.6L-148.46 -20.6L-146.08 -32.81L-141.63 -32.81C-139.42 -32.81 -137.76 -32.48 -136.63 -31.82C-135.51 -31.15 -134.95 -30.05 -134.95 -28.51Z M-99.19 0.59C-96.07 0.59 -93.25 -0.06 -90.75 -1.36C-88.25 -2.66 -86.11 -4.58 -84.32 -7.1C-82.54 -9.63 -81.13 -12.76 -80.12 -16.48C-79.1 -20.2 -78.59 -23.66 -78.59 -26.87C-78.59 -31.3 -79.67 -34.62 -81.83 -36.83C-83.99 -39.03 -87.14 -40.14 -91.28 -40.14C-94.44 -40.14 -97.28 -39.49 -99.79 -38.2C-102.3 -36.91 -104.43 -35.02 -106.19 -32.53C-107.95 -30.04 -109.33 -26.95 -110.34 -23.25C-111.34 -19.55 -111.85 -16.09 -111.85 -12.89C-111.85 -8.42 -110.78 -5.05 -108.64 -2.8C-106.5 -0.54 -103.35 0.59 -99.19 0.59ZM-87.38 -26.13C-87.38 -23.4 -87.85 -20.29 -88.79 -16.8C-89.73 -13.32 -90.96 -10.68 -92.48 -8.89C-94 -7.1 -95.8 -6.21 -97.87 -6.21C-101.33 -6.21 -103.06 -8.69 -103.06 -13.65C-103.06 -16.35 -102.59 -19.43 -101.67 -22.91C-100.74 -26.39 -99.52 -28.99 -98 -30.73C-96.49 -32.47 -94.69 -33.34 -92.6 -33.34C-89.12 -33.34 -87.38 -30.94 -87.38 -26.13Z M-45.76 0L-37.12 0L-29.45 -39.52L-57.37 -39.52L-65.04 0L-56.4 0L-50.1 -32.37L-39.47 -32.37Z M0.04 -13.95C2.78 -13.95 5.24 -14.35 7.44 -15.15C9.64 -15.95 11.5 -17.08 13.04 -18.53C14.57 -19.99 15.77 -21.75 16.64 -23.83C17.51 -25.91 17.94 -27.99 17.94 -30.06C17.94 -33.16 16.82 -35.52 14.56 -37.12C12.3 -38.72 9 -39.52 4.64 -39.52L-9.42 -39.52L-17.09 0L-8.45 0L-5.73 -13.95ZM9.07 -28.51C9.07 -28.02 9.01 -27.48 8.89 -26.89C8.09 -22.7 5.21 -20.6 0.25 -20.6L-4.44 -20.6L-2.07 -32.81L2.39 -32.81C4.59 -32.81 6.26 -32.48 7.38 -31.82C8.51 -31.15 9.07 -30.05 9.07 -28.51Z M30.91 0L41.05 0L58.04 -29.59C56.48 -24.22 55.54 -20.76 55.23 -19.22L51.48 0L59.01 0L66.68 -39.52L56.81 -39.52L39.41 -9.14C40.81 -13.61 41.78 -17.18 42.31 -19.83L46.12 -39.52L38.59 -39.52Z M74.96 0L84.69 0L96.11 -15.09L101.18 -15.09L98.25 0L106.9 0L114.57 -39.52L100.1 -39.52C96.21 -39.52 92.96 -38.95 90.33 -37.81C87.7 -36.67 85.68 -34.97 84.28 -32.71C82.87 -30.45 82.17 -28 82.17 -25.34C82.17 -23.29 82.72 -21.56 83.81 -20.14C84.9 -18.73 86.47 -17.69 88.5 -17.02ZM90.9 -26.07C90.9 -27.42 91.22 -28.63 91.85 -29.69C92.49 -30.76 93.44 -31.54 94.71 -32.05C95.98 -32.56 97.65 -32.81 99.72 -32.81L104.64 -32.81L102.5 -21.8L97.34 -21.8C93.05 -21.8 90.9 -23.22 90.9 -26.07Z M151.65 -32.84L163.54 -32.84L164.83 -39.52L132.4 -39.52L131.11 -32.84L143.01 -32.84L136.62 0L145.26 0Z M174.93 0L185.07 0L202.06 -29.59C200.5 -24.22 199.56 -20.76 199.25 -19.22L195.5 0L203.02 0L210.7 -39.52L200.83 -39.52L183.42 -9.14C184.83 -13.61 185.8 -17.18 186.33 -19.83L190.13 -39.52L182.6 -39.52Z M222.93 0L233.07 0L250.06 -29.59C248.5 -24.22 247.56 -20.76 247.25 -19.22L243.5 0L251.03 0L258.71 -39.52L248.83 -39.52L231.43 -9.14C232.84 -13.61 233.8 -17.18 234.33 -19.83L238.14 -39.52L230.61 -39.52ZM245.02 -41.43C247.76 -41.43 250.05 -41.72 251.91 -42.32C253.76 -42.92 255.21 -43.79 256.26 -44.96C257.3 -46.12 258.08 -47.78 258.59 -49.95L252.03 -49.95C251.75 -48.86 251.39 -47.99 250.94 -47.36C250.49 -46.72 249.91 -46.26 249.18 -45.98C248.46 -45.7 247.35 -45.56 245.84 -45.56C244.01 -45.56 242.77 -45.79 242.14 -46.26C241.5 -46.73 241.19 -47.52 241.19 -48.63L241.3 -49.95L234.74 -49.95C234.62 -49.23 234.57 -48.52 234.57 -47.81C234.57 -45.55 235.41 -43.92 237.1 -42.92C238.79 -41.92 241.43 -41.43 245.02 -41.43Z"></path></g></g></svg>